<?xml version="1.0" standalone="no"?>
<!DOCTYPE svg PUBLIC "-//W3C//DTD SVG 20010904//EN"
 "http://www.w3.org/TR/2001/REC-SVG-20010904/DTD/svg10.dtd">
<svg version="1.0" xmlns="http://www.w3.org/2000/svg"
 width="1530.000000pt" height="1530.000000pt" viewBox="0 0 1530.000000 1530.000000"
 preserveAspectRatio="xMidYMid meet">
<metadata>
Created by potrace 1.11, written by Peter Selinger 2001-2013
</metadata>
<g transform="translate(0.000000,1530.000000) scale(0.100000,-0.100000)"
fill="#000000" stroke="none">
<path d="M7377 15084 c-1 -1 -63 -5 -137 -9 -74 -4 -151 -8 -170 -10 -19 -2
-73 -6 -120 -10 -47 -3 -96 -8 -110 -10 -14 -2 -54 -7 -90 -10 -83 -9 -101
-11 -180 -24 -36 -6 -83 -13 -105 -16 -22 -3 -51 -7 -65 -10 -13 -2 -42 -8
-65 -11 -22 -4 -49 -8 -60 -10 -11 -1 -31 -5 -45 -8 -30 -7 -166 -34 -198 -41
-13 -2 -31 -6 -40 -9 -9 -3 -28 -7 -42 -10 -181 -35 -794 -219 -935 -281 -16
-7 -91 -36 -165 -65 -74 -29 -162 -65 -195 -80 -33 -16 -112 -52 -175 -80
-128 -59 -405 -200 -462 -236 -21 -13 -40 -24 -43 -24 -16 0 -557 -337 -575
-359 -3 -3 -12 -10 -21 -16 -80 -50 -469 -344 -509 -385 -3 -3 -50 -43 -105
-90 -142 -121 -206 -180 -415 -390 -186 -186 -224 -227 -335 -355 -33 -38 -67
-76 -75 -85 -29 -30 -246 -305 -320 -405 -108 -145 -304 -440 -380 -570 -10
-16 -48 -82 -85 -145 -69 -117 -257 -482 -310 -600 -16 -36 -41 -93 -57 -127
-15 -34 -28 -64 -28 -68 0 -3 -11 -30 -25 -60 -37 -81 -203 -535 -210 -575 -1
-5 -53 -175 -75 -245 -28 -90 -125 -498 -136 -573 -3 -20 -7 -44 -9 -52 -4
-13 -23 -121 -40 -220 -12 -74 -25 -161 -30 -210 -3 -30 -8 -66 -10 -80 -8
-59 -15 -120 -21 -195 -4 -44 -8 -93 -10 -110 -18 -189 -25 -805 -10 -1020 9
-148 15 -220 21 -280 3 -27 8 -72 11 -100 2 -27 7 -66 9 -85 3 -19 7 -55 10
-80 8 -57 11 -77 25 -170 15 -96 17 -108 24 -150 3 -19 8 -46 10 -60 2 -14 14
-70 26 -125 11 -55 25 -121 30 -148 5 -26 17 -75 26 -110 9 -34 18 -71 20 -82
28 -149 213 -724 299 -930 7 -16 29 -68 48 -115 136 -332 327 -704 530 -1035
66 -107 240 -372 269 -410 4 -5 58 -77 119 -160 98 -131 301 -382 370 -457 13
-14 58 -63 99 -109 84 -93 333 -344 426 -429 52 -48 118 -107 204 -184 142
-127 483 -387 690 -528 773 -524 1648 -901 2550 -1101 113 -25 221 -48 240
-51 19 -3 44 -7 55 -10 11 -2 40 -7 65 -11 25 -4 54 -9 65 -11 10 -2 37 -6 60
-9 22 -3 51 -8 65 -10 14 -3 45 -7 70 -10 25 -3 61 -7 80 -10 75 -9 117 -14
180 -20 36 -3 81 -8 100 -10 34 -4 133 -11 305 -21 90 -5 623 -5 700 0 28 2
97 7 155 10 58 4 123 9 145 11 22 2 67 7 100 10 82 8 122 12 250 30 61 9 128
18 150 21 139 18 471 85 648 130 56 14 112 28 125 30 13 3 42 11 65 18 23 7
69 21 102 31 289 84 667 221 873 316 35 16 65 29 67 29 13 0 466 221 490 240
6 4 51 29 100 55 50 26 101 55 115 64 14 9 34 21 45 28 137 79 474 297 519
334 6 5 50 37 97 72 48 34 104 75 125 92 305 235 479 389 764 674 394 396 693
767 1000 1243 235 363 481 844 643 1253 143 361 276 787 338 1080 7 33 14 65
15 70 5 19 33 150 38 180 33 179 55 316 62 370 3 33 8 62 9 65 2 3 6 37 10 75
4 39 9 77 10 86 2 8 6 55 10 105 4 49 9 98 11 108 26 138 25 1074 -1 1256 -2
14 -6 61 -10 105 -3 44 -8 91 -10 105 -2 14 -9 63 -15 110 -10 83 -14 111 -26
188 -96 646 -319 1391 -593 1977 -124 264 -324 637 -436 810 -194 300 -300
452 -454 650 -279 358 -612 714 -926 991 -123 108 -138 121 -245 208 -125 102
-98 81 -245 192 -522 395 -1141 740 -1755 979 -132 52 -389 144 -420 150 -8 2
-42 13 -75 24 -55 18 -295 87 -337 97 -10 2 -26 6 -35 9 -64 17 -109 28 -188
45 -195 43 -222 48 -256 54 -19 3 -45 8 -59 11 -14 2 -36 7 -50 10 -14 2 -41
7 -60 10 -19 3 -46 7 -60 10 -14 3 -47 7 -75 10 -27 3 -77 10 -110 15 -33 5
-87 12 -120 15 -33 4 -70 8 -83 10 -13 2 -65 7 -115 11 -51 3 -99 8 -107 9
-62 12 -813 28 -823 19z"/>
</g>
</svg>
