<?xml version="1.0" standalone="no"?>
<!DOCTYPE svg PUBLIC "-//W3C//DTD SVG 20010904//EN"
 "http://www.w3.org/TR/2001/REC-SVG-20010904/DTD/svg10.dtd">
<svg version="1.0" xmlns="http://www.w3.org/2000/svg"
 width="1530.000000pt" height="1530.000000pt" viewBox="0 0 1530.000000 1530.000000"
 preserveAspectRatio="xMidYMid meet">
<metadata>
Created by potrace 1.11, written by Peter Selinger 2001-2013
</metadata>
<g transform="translate(0.000000,1530.000000) scale(0.100000,-0.100000)"
fill="#000000" stroke="none">
<path d="M7210 15080 c-1483 -91 -2859 -591 -4036 -1468 -1439 -1072 -2441
-2619 -2829 -4367 -111 -502 -163 -946 -172 -1485 -9 -532 27 -991 117 -1480
407 -2222 1802 -4140 3795 -5222 1616 -877 3545 -1122 5345 -677 1196 296
2319 898 3230 1730 147 135 440 432 566 574 646 731 1157 1609 1470 2530 215
631 340 1265 385 1948 15 236 6 926 -15 1142 -42 425 -101 766 -198 1150 -346
1374 -1089 2638 -2118 3603 -1057 991 -2335 1641 -3745 1906 -237 44 -525 82
-815 106 -169 15 -800 21 -980 10z m-3960 -4631 c289 -42 487 -222 546 -497
20 -92 11 -131 -33 -151 -31 -14 -337 -82 -376 -83 -37 -1 -52 16 -71 84 -29
102 -107 166 -215 175 -113 10 -201 -39 -201 -112 0 -75 55 -116 282 -209 277
-114 399 -185 501 -289 115 -119 177 -306 149 -449 -21 -105 -92 -237 -170
-315 -156 -157 -351 -221 -642 -210 -232 8 -368 58 -498 181 -59 56 -81 86
-117 160 -42 86 -75 207 -75 274 0 46 28 72 95 87 38 9 63 11 69 5 16 -16 49
-12 43 4 -4 11 16 19 84 35 150 35 182 27 194 -47 19 -113 73 -179 171 -208
149 -43 326 40 310 145 -11 74 -70 112 -338 219 -228 91 -344 159 -428 249
-134 147 -178 353 -116 549 101 317 407 465 836 403z m9133 -8 c173 -46 308
-150 380 -292 72 -144 72 -142 72 -724 0 -579 0 -578 -70 -720 -65 -134 -177
-229 -327 -279 -101 -34 -183 -46 -320 -46 -107 0 -118 2 -128 20 -13 24 -30
26 -30 5 0 -19 -1 -19 -90 6 -171 47 -306 152 -374 290 -71 147 -71 144 -71
724 0 581 -1 575 72 724 62 126 192 235 337 281 140 45 402 50 549 11z m-6558
-46 c25 -24 25 -26 25 -215 0 -106 -4 -200 -10 -210 -18 -33 -66 -40 -296 -40
l-223 0 -20 -26 c-21 -26 -21 -34 -21 -726 l0 -699 -25 -24 c-24 -25 -26 -25
-213 -25 -176 0 -191 1 -215 21 l-27 20 -2 709 c-3 672 -4 709 -21 728 -18 20
-32 21 -264 24 -243 3 -245 3 -264 27 -17 21 -19 41 -19 221 l0 199 26 20 c26
21 33 21 786 21 l759 0 24 -25z m970 2 c11 -15 14 -152 18 -685 3 -503 7 -678
17 -711 20 -68 73 -116 144 -131 113 -23 221 11 257 80 36 69 39 132 39 782
l0 639 25 24 c24 25 26 25 209 25 102 0 196 -4 209 -9 48 -18 49 -31 44 -778
-5 -782 -3 -768 -77 -922 -74 -154 -208 -258 -395 -307 -55 -15 -108 -19 -245
-19 -153 0 -185 3 -255 23 -180 52 -303 149 -375 295 -78 159 -74 115 -78 935
l-3 732 26 26 25 25 201 -3 c180 -3 202 -5 214 -21z m2441 13 c109 -14 187
-35 260 -70 48 -24 60 -34 60 -52 -1 -19 4 -23 26 -20 55 5 142 -143 175 -298
16 -75 18 -140 18 -545 0 -408 -2 -470 -18 -545 -51 -236 -167 -357 -402 -422
-75 -20 -105 -22 -515 -26 -433 -3 -436 -3 -463 18 l-27 21 0 950 0 950 25 24
24 25 378 0 c208 0 415 -5 459 -10z m1575 -9 l24 -19 3 -871 c2 -771 1 -872
-13 -877 -19 -8 -19 -33 0 -40 34 -14 9 -142 -30 -158 -9 -3 -99 -6 -199 -6
-170 0 -185 1 -210 21 l-26 20 0 954 0 954 26 20 c25 20 40 21 214 21 170 0
190 -2 211 -19z m664 -2601 c383 -28 674 -131 914 -325 185 -149 326 -357 364
-535 36 -170 47 -470 26 -735 -5 -71 -14 -281 -19 -465 -10 -373 -19 -436 -83
-585 -113 -263 -317 -461 -592 -572 -110 -45 -181 -63 -360 -93 -66 -11 -158
-27 -205 -36 -181 -35 -459 -10 -775 70 -385 98 -558 214 -681 458 -73 145
-115 369 -81 435 14 27 23 31 74 38 32 4 112 6 178 5 66 -2 217 -3 335 -4 155
-1 221 -5 238 -14 12 -7 38 -43 57 -80 34 -68 88 -122 142 -143 131 -52 352
-73 484 -46 91 19 209 73 267 123 59 50 121 174 123 246 2 76 -36 207 -70 235
-28 24 -47 29 -53 14 -7 -18 -148 -80 -239 -105 -119 -32 -387 -51 -609 -42
-172 7 -258 27 -415 101 -203 95 -330 202 -425 355 -92 149 -132 276 -151 485
-20 223 40 469 163 673 64 107 219 266 248 257 15 -5 20 -2 20 13 0 39 244
162 398 202 168 42 332 65 562 78 14 1 88 -3 165 -8z m-8283 -51 c186 -10 205
-12 226 -32 49 -45 201 -257 280 -388 55 -92 146 -217 284 -390 142 -178 228
-296 286 -392 84 -142 273 -392 318 -422 33 -21 63 -16 85 15 19 24 18 28 -4
150 -20 111 -22 158 -22 422 l0 296 -143 -1 c-165 -2 -165 -2 -157 83 3 30 8
159 10 285 5 231 14 328 32 346 5 5 36 14 69 19 112 19 1260 10 1334 -10 60
-16 63 -36 56 -348 -3 -147 -8 -279 -12 -294 -3 -16 -16 -30 -33 -37 -44 -16
-153 -31 -234 -31 l-77 0 0 -102 c0 -57 5 -134 11 -173 7 -49 7 -127 -1 -260
-8 -146 -8 -227 2 -350 8 -96 10 -210 6 -285 -10 -198 -9 -622 2 -769 14 -181
-15 -521 -44 -521 -2 0 -41 -8 -87 -17 -104 -21 -312 -23 -496 -4 l-132 14
-104 146 c-57 80 -144 205 -192 276 -88 129 -159 228 -345 480 -53 72 -135
191 -182 266 -47 75 -130 189 -183 255 -54 65 -109 142 -121 171 -26 57 -49
67 -88 38 -18 -14 -19 -25 -12 -190 5 -120 4 -175 -3 -175 -14 0 -14 -27 0
-32 17 -6 23 -196 10 -358 -9 -126 -9 -146 4 -156 9 -6 74 -15 145 -19 79 -4
133 -11 139 -19 5 -6 15 -142 21 -301 13 -336 9 -368 -46 -391 -39 -16 -162
-18 -284 -4 -55 6 -142 6 -245 0 -88 -5 -317 -10 -510 -11 -312 -2 -354 -1
-382 14 -61 32 -61 32 -51 432 3 110 8 212 12 227 8 26 44 49 82 49 10 0 58
-3 105 -7 112 -9 134 -3 158 44 19 37 19 55 10 683 -10 644 -11 788 -4 800 8
12 -14 219 -25 239 -10 19 -19 21 -138 19 -93 -2 -133 1 -148 11 -30 19 -43
88 -55 295 -12 182 -7 328 12 369 12 25 16 27 134 50 44 8 536 5 727 -5z
m4375 -10 c136 -15 273 -52 371 -100 99 -49 233 -169 293 -263 76 -117 146
-268 163 -351 24 -119 35 -265 26 -337 -42 -323 -38 -308 -86 -405 -94 -190
-184 -297 -328 -392 -97 -63 -313 -137 -447 -153 -201 -23 -430 23 -658 135
-113 54 -143 80 -274 232 -81 95 -105 142 -147 295 -48 174 -61 347 -39 507
22 161 123 415 205 512 37 45 199 164 285 210 88 47 210 84 334 101 50 6 97
13 105 15 34 6 106 4 197 -6z m-1524 -268 c19 -19 26 -126 22 -331 -5 -236
-11 -294 -31 -311 -23 -19 -134 -38 -226 -39 l-88 0 0 -105 c0 -67 -5 -113
-12 -126 -11 -17 -10 -22 7 -35 19 -14 20 -24 16 -177 -3 -89 -4 -207 -3 -262
1 -55 2 -298 2 -539 0 -378 -2 -443 -15 -463 -12 -18 -13 -23 -2 -23 10 0 16
-43 24 -182 10 -161 9 -201 -7 -333 -26 -209 -23 -201 -78 -214 -137 -31 -421
-47 -581 -33 l-85 7 -47 60 -47 60 76 -7 c201 -18 534 3 586 37 31 21 33 28
51 275 14 175 14 243 4 467 -10 206 -10 319 0 530 9 207 9 301 0 413 -7 94 -9
204 -4 315 9 202 9 180 0 331 l-8 121 64 7 c35 3 103 9 151 12 67 5 91 11 104
25 21 23 32 136 33 330 1 134 1 136 24 135 18 -1 22 4 22 29 0 22 -4 30 -17
29 -10 -1 -18 3 -18 8 0 13 69 3 83 -11z m2402 -370 c8 -17 34 -87 57 -158
l42 -128 0 -160 c0 -173 -12 -263 -51 -390 -75 -237 -209 -404 -428 -533 -244
-143 -685 -173 -922 -63 -57 27 -145 81 -132 81 3 0 32 -9 64 -20 221 -76 573
-71 789 12 336 129 543 395 602 773 27 178 11 410 -42 593 -9 31 3 27 21 -7z
m4515 -276 c62 -126 61 -114 58 -897 l-3 -713 -28 -105 c-76 -288 -257 -518
-527 -670 -168 -95 -335 -151 -575 -192 -109 -18 -169 -22 -370 -23 -394 0
-655 51 -872 173 -46 25 -81 47 -80 49 2 2 60 -13 129 -31 128 -35 428 -84
528 -86 62 -2 386 17 464 26 155 18 385 81 531 146 296 131 515 367 608 653
51 157 57 219 57 597 0 243 5 403 16 526 12 132 15 237 11 412 -6 260 -7 258
53 135z m-4111 -586 c64 -28 128 -84 153 -132 18 -33 23 -59 23 -122 0 -108
-34 -182 -103 -222 -43 -26 -56 -28 -153 -28 -100 0 -108 2 -155 30 -98 61
-144 188 -108 297 21 64 119 168 174 185 55 17 121 14 169 -8z m270 -375 c2
-85 -55 -191 -122 -225 -76 -40 -260 -25 -315 26 -10 9 12 11 96 7 101 -4 114
-2 164 21 32 14 66 39 82 60 36 47 66 127 67 180 l1 42 13 -40 c8 -22 14 -54
14 -71z m-5379 -153 c0 -47 3 -143 7 -213 l6 -128 -63 0 -62 0 6 26 c9 34 9
330 0 454 l-6 95 56 -74 56 -75 0 -85z m8036 -130 c12 -43 12 -47 -18 -102
-16 -32 -38 -65 -49 -75 -26 -24 -140 -28 -434 -16 -304 13 -369 28 -410 92
-21 33 -31 39 -70 44 -25 3 -64 8 -87 11 -24 3 -54 15 -68 26 l-25 21 25 -6
c14 -3 68 -10 120 -16 52 -6 127 -16 165 -22 96 -15 370 -15 485 1 97 13 227
46 290 74 50 22 61 18 76 -32z m-2982 -172 c37 -17 46 -57 46 -204 0 -147 -9
-187 -46 -204 -18 -8 -219 -11 -709 -11 -579 0 -685 2 -685 14 0 16 -27 29
-41 20 -5 -3 -9 -12 -9 -20 0 -13 -47 -14 -356 -12 l-356 3 -19 24 c-17 21
-19 41 -19 185 0 168 3 181 45 204 29 16 2114 16 2149 1z m-4756 -415 c19 -4
22 -11 22 -52 0 -26 5 -150 10 -277 10 -240 4 -325 -24 -353 -15 -15 -69 -17
-554 -22 -295 -3 -609 -5 -697 -5 -207 0 -245 14 -245 93 l0 30 123 6 c153 7
705 20 771 18 27 -1 54 -6 60 -10 6 -4 93 -5 193 -2 208 6 210 7 239 93 15 45
16 80 10 275 l-6 223 37 -6 c21 -3 48 -8 61 -11z"/>
<path d="M2940 10350 c0 -15 5 -20 18 -18 9 2 17 10 17 18 0 8 -8 16 -17 18
-13 2 -18 -3 -18 -18z"/>
<path d="M2940 10211 c0 -12 6 -21 16 -21 9 0 14 7 12 17 -5 25 -28 28 -28 4z"/>
<path d="M3685 10020 c-3 -6 1 -13 10 -16 19 -8 30 0 20 15 -8 14 -22 14 -30
1z"/>
<path d="M3567 8843 c-4 -3 -7 -17 -7 -30 0 -18 5 -23 25 -23 14 0 28 7 31 15
11 27 -30 58 -49 38z"/>
<path d="M3503 8764 c-3 -8 -1 -20 5 -26 15 -15 43 8 35 28 -7 19 -32 18 -40
-2z"/>
<path d="M12100 9985 c-8 -2 -32 -6 -53 -10 -53 -8 -102 -55 -124 -118 -16
-47 -18 -91 -18 -432 0 -409 3 -437 51 -495 43 -51 79 -64 174 -64 122 0 183
39 212 137 19 60 18 784 0 845 -16 53 -63 108 -105 121 -38 11 -116 20 -137
16z"/>
<path d="M12597 9094 c-9 -10 2 -24 19 -24 8 0 14 7 14 15 0 15 -21 21 -33 9z"/>
<path d="M12732 8751 c-10 -6 -10 -10 2 -20 10 -9 16 -9 21 -1 10 16 -7 31
-23 21z"/>
<path d="M11636 8602 c-3 -6 -1 -14 5 -17 15 -10 25 3 12 16 -7 7 -13 7 -17 1z"/>
<path d="M4897 8883 c-13 -12 -7 -33 8 -33 8 0 15 9 15 20 0 20 -11 26 -23 13z"/>
<path d="M5226 8781 c-4 -7 -5 -15 -2 -18 9 -9 19 4 14 18 -4 11 -6 11 -12 0z"/>
<path d="M4985 8631 c-7 -12 12 -24 25 -16 11 7 4 25 -10 25 -5 0 -11 -4 -15
-9z"/>
<path d="M5014 8476 c-8 -22 3 -33 18 -18 9 9 9 15 0 24 -9 9 -13 7 -18 -6z"/>
<path d="M6747 10283 c-12 -11 -8 -23 8 -23 8 0 15 7 15 15 0 16 -12 20 -23 8z"/>
<path d="M7312 10228 c2 -15 10 -23 23 -23 13 0 21 8 23 23 3 18 -1 22 -23 22
-22 0 -26 -4 -23 -22z"/>
<path d="M6536 10062 c-3 -6 -1 -14 5 -17 15 -10 25 3 12 16 -7 7 -13 7 -17 1z"/>
<path d="M6585 8539 c-4 -6 -5 -13 -2 -16 7 -7 27 6 27 18 0 12 -17 12 -25 -2z"/>
<path d="M9554 10065 c-9 -23 4 -47 23 -43 22 4 30 38 11 49 -19 13 -28 11
-34 -6z"/>
<path d="M8854 9909 c-18 -20 -19 -43 -19 -485 l0 -463 23 -23 c22 -22 30 -23
170 -22 161 0 195 10 229 61 16 25 18 65 21 438 2 376 1 413 -15 445 -30 60
-66 70 -239 70 -141 0 -152 -1 -170 -21z"/>
<path d="M9296 8751 c-8 -13 20 -45 32 -37 20 12 14 46 -7 46 -11 0 -22 -4
-25 -9z"/>
<path d="M9160 8605 c0 -18 5 -25 20 -25 21 0 24 8 14 34 -10 25 -34 19 -34
-9z"/>
<path d="M10790 9990 c0 -5 5 -10 10 -10 6 0 10 5 10 10 0 6 -4 10 -10 10 -5
0 -10 -4 -10 -10z"/>
<path d="M10635 8680 c-3 -5 1 -10 9 -10 9 0 16 5 16 10 0 6 -4 10 -9 10 -6 0
-13 -4 -16 -10z"/>
<path d="M11902 7653 c-25 -30 -17 -49 17 -38 15 4 21 15 21 36 0 35 -8 36
-38 2z"/>
<path d="M11822 7469 c2 -6 8 -10 13 -10 5 0 11 4 13 10 2 6 -4 11 -13 11 -9
0 -15 -5 -13 -11z"/>
<path d="M11595 7289 c-10 -15 3 -25 16 -12 7 7 7 13 1 17 -6 3 -14 1 -17 -5z"/>
<path d="M11135 7030 c-73 -10 -143 -45 -198 -98 -67 -65 -96 -125 -103 -214
-8 -95 11 -167 65 -247 40 -58 48 -64 154 -115 145 -70 227 -83 397 -62 144
18 224 49 294 113 85 80 119 194 96 320 -23 118 -111 216 -239 264 -110 41
-322 59 -466 39z m301 -130 c80 -13 139 -40 194 -90 l45 -40 -49 20 c-96 40
-320 36 -428 -7 -88 -35 -148 -181 -114 -279 l16 -46 -33 24 c-47 37 -72 79
-86 145 -22 104 23 203 109 240 91 39 229 52 346 33z"/>
<path d="M12742 6304 c4 -21 22 -23 26 -1 2 10 -3 17 -13 17 -10 0 -15 -6 -13
-16z"/>
<path d="M10115 6221 c-6 -11 9 -23 19 -14 9 9 7 23 -3 23 -6 0 -12 -4 -16 -9z"/>
<path d="M12664 6055 c-7 -18 3 -35 21 -35 12 0 25 21 25 41 0 15 -40 10 -46
-6z"/>
<path d="M12387 5853 c-12 -11 -8 -23 8 -23 8 0 15 7 15 15 0 16 -12 20 -23 8z"/>
<path d="M11993 5463 c-16 -6 -17 -39 -2 -49 16 -9 43 21 36 40 -7 16 -13 18
-34 9z"/>
<path d="M12274 5445 c-9 -23 15 -48 32 -34 10 8 14 8 14 0 0 -6 7 -11 15 -11
8 0 15 5 15 10 0 6 -7 13 -15 16 -8 4 -15 12 -15 20 0 19 -39 18 -46 -1z"/>
<path d="M11437 5073 c-14 -13 -6 -23 18 -23 16 0 25 6 25 15 0 15 -31 21 -43
8z"/>
<path d="M10862 4633 c2 -10 10 -18 18 -18 22 0 18 29 -3 33 -14 3 -18 -1 -15
-15z"/>
<path d="M4690 6635 c0 -9 5 -15 11 -13 6 2 11 8 11 13 0 5 -5 11 -11 13 -6 2
-11 -4 -11 -13z"/>
<path d="M4130 6515 c0 -8 7 -15 15 -15 8 0 15 7 15 15 0 8 -7 15 -15 15 -8 0
-15 -7 -15 -15z"/>
<path d="M3270 5835 c0 -8 5 -15 10 -15 6 0 10 7 10 15 0 8 -4 15 -10 15 -5 0
-10 -7 -10 -15z"/>
<path d="M3450 5084 c0 -9 7 -14 17 -12 25 5 28 28 4 28 -12 0 -21 -6 -21 -16z"/>
<path d="M5065 5080 c-8 -13 3 -50 15 -50 13 0 28 32 23 48 -6 15 -29 16 -38
2z"/>
<path d="M3380 5060 c0 -22 1 -23 24 -14 23 9 20 34 -4 34 -13 0 -20 -7 -20
-20z"/>
<path d="M7280 7271 c-168 -54 -260 -149 -316 -326 -48 -148 -32 -363 35 -480
67 -116 176 -205 299 -242 67 -20 215 -22 281 -4 107 30 232 152 284 276 63
152 60 387 -6 525 -55 113 -175 225 -275 256 -67 20 -233 18 -302 -5z m332
-70 l43 -19 -96 -1 c-250 -2 -436 -152 -500 -401 -8 -33 -14 -107 -14 -183 0
-118 -1 -126 -14 -95 -54 133 -52 322 6 463 60 147 211 255 373 267 60 5 158
-10 202 -31z"/>
<path d="M7655 6227 c-25 -19 -13 -50 17 -45 17 2 23 10 23 27 0 30 -14 36
-40 18z"/>
<path d="M6670 6195 c0 -8 7 -15 15 -15 8 0 15 7 15 15 0 8 -7 15 -15 15 -8 0
-15 -7 -15 -15z"/>
<path d="M5692 4743 c5 -25 28 -28 28 -4 0 12 -6 21 -16 21 -9 0 -14 -7 -12
-17z"/>
<path d="M8193 5924 c-3 -8 -1 -20 5 -26 16 -16 42 -2 42 22 0 24 -38 28 -47
4z"/>
<path d="M12530 4645 c0 -8 7 -15 15 -15 8 0 15 7 15 15 0 8 -7 15 -15 15 -8
0 -15 -7 -15 -15z"/>
<path d="M12583 4565 c-3 -9 -3 -18 0 -21 9 -9 27 6 27 22 0 19 -19 18 -27 -1z"/>
<path d="M12370 4490 c0 -5 4 -10 9 -10 6 0 13 5 16 10 3 6 -1 10 -9 10 -9 0
-16 -4 -16 -10z"/>
<path d="M12097 4365 c6 -17 25 -15 31 3 2 7 -5 12 -17 12 -14 0 -19 -5 -14
-15z"/>
<path d="M8736 6243 c-12 -12 -6 -33 9 -33 8 0 15 6 15 14 0 17 -14 28 -24 19z"/>
<path d="M8655 5870 c-7 -12 5 -82 14 -77 3 2 21 10 39 17 33 15 41 37 20 58
-14 14 -64 16 -73 2z"/>
<path d="M3660 5456 c0 -8 5 -18 10 -21 13 -8 42 14 34 26 -9 15 -44 10 -44
-5z"/>
<path d="M7545 5336 c-3 -9 -7 -23 -10 -31 -8 -27 6 -45 36 -45 28 0 39 17 22
34 -4 4 -8 17 -8 29 0 26 -33 36 -40 13z"/>
<path d="M7580 5195 c0 -8 7 -15 15 -15 8 0 15 7 15 15 0 8 -7 15 -15 15 -8 0
-15 -7 -15 -15z"/>
</g>
</svg>
